{
  "accessors": [
    {
      "bufferView": 2,
      "componentType": 5126,
      "count": 9661,
      "max": [
        292.3291320800781,
        460.0343322753906,
        296.3035583496094
      ],
      "min": [
        -295.6876525878906,
        -40.61941909790039,
        -294.735107421875
      ],
      "type": "VEC3"
    },
    {
      "bufferView": 2,
      "byteOffset": 115932,
      "componentType": 5126,
      "count": 9661,
      "max": [
        0.9999979734420776,
        0.9998612403869629,
        0.9998566508293152
      ],
      "min": [
        -0.9999979734420776,
        -0.9998598098754883,
        -0.9984859228134155
      ],
      "type": "VEC3"
    },
    {
      "bufferView": 3,
      "componentType": 5126,
      "count": 9661,
      "max": [
        1.0,
        0.9443496465682983,
        1.0,
        1.0
      ],
      "min": [
        -0.9999973773956299,
        -0.9684340357780457,
        -1.0,
        -1.0
      ],
      "type": "VEC4"
    },
    {
      "bufferView": 1,
      "componentType": 5126,
      "count": 9661,
      "max": [
        0.9846943616867065,
        0.9774556159973145
      ],
      "min": [
        0.01853073760867119,
        0.03573663532733917
      ],
      "type": "VEC2"
    },
    {
      "bufferView": 1,
      "byteOffset": 77288,
      "componentType": 5126,
      "count": 9661,
      "max": [
        0.9846943616867065,
        0.9774556159973145
      ],
      "min": [
        0.01853073760867119,
        0.03573663532733917
      ],
      "type": "VEC2"
    },
    {
      "bufferView": 1,
      "byteOffset": 154576,
      "componentType": 5126,
      "count": 9661,
      "max": [
        0.9846943616867065,
        0.9774556159973145
      ],
      "min": [
        0.01853073760867119,
        0.03573663532733917
      ],
      "type": "VEC2"
    },
    {
      "bufferView": 0,
      "componentType": 5125,
      "count": 49764,
      "type": "SCALAR"
    }
  ],
  "asset": {
    "extras": {
      "author": "Arkikon (https://sketchfab.com/ragnar)",
      "license": "CC-BY-4.0 (http://creativecommons.org/licenses/by/4.0/)",
      "source": "https://sketchfab.com/3d-models/tent-441936f01497461cb226624da9a168db",
      "title": "Tent"
    },
    "generator": "Sketchfab-12.68.0",
    "version": "2.0"
  },
  "bufferViews": [
    {
      "buffer": 0,
      "byteLength": 199056,
      "name": "floatBufferViews",
      "target": 34963
    },
    {
      "buffer": 0,
      "byteLength": 231864,
      "byteOffset": 199056,
      "byteStride": 8,
      "name": "floatBufferViews",
      "target": 34962
    },
    {
      "buffer": 0,
      "byteLength": 231864,
      "byteOffset": 430920,
      "byteStride": 12,
      "name": "floatBufferViews",
      "target": 34962
    },
    {
      "buffer": 0,
      "byteLength": 154576,
      "byteOffset": 662784,
      "byteStride": 16,
      "name": "floatBufferViews",
      "target": 34962
    }
  ],
  "buffers": [
    {
      "byteLength": 817360,
      "uri": "scene.bin"
    }
  ],
  "images": [
    {
      "uri": "textures/Tent_Mat_baseColor.jpeg"
    },
    {
      "uri": "textures/Tent_Mat_metallicRoughness.png"
    },
    {
      "uri": "textures/Tent_Mat_normal.png"
    }
  ],
  "materials": [
    {
      "doubleSided": true,
      "name": "Tent_Mat",
      "normalTexture": {
        "index": 2
      },
      "pbrMetallicRoughness": {
        "baseColorTexture": {
          "index": 0
        },
        "metallicFactor": 0.0,
        "metallicRoughnessTexture": {
          "index": 1
        }
      }
    }
  ],
  "meshes": [
    {
      "name": "TentMesh_Tent_Mat_0",
      "primitives": [
        {
          "attributes": {
            "NORMAL": 1,
            "POSITION": 0,
            "TANGENT": 2,
            "TEXCOORD_0": 3,
            "TEXCOORD_1": 4,
            "TEXCOORD_2": 5
          },
          "indices": 6,
          "material": 0,
          "mode": 4
        }
      ]
    }
  ],
  "nodes": [
    {
      "children": [
        1
      ],
      "matrix": [
        1.0,
        0.0,
        0.0,
        0.0,
        0.0,
        2.220446049250313e-16,
        -1.0,
        0.0,
        0.0,
        1.0,
        2.220446049250313e-16,
        0.0,
        0.0,
        0.0,
        0.0,
        1.0
      ],
      "name": "Sketchfab_model"
    },
    {
      "children": [
        2
      ],
      "matrix": [
        0.009999999776482582,
        0.0,
        0.0,
        0.0,
        0.0,
        0.0,
        0.009999999776482582,
        0.0,
        0.0,
        -0.009999999776482582,
        0.0,
        0.0,
        0.0,
        0.0,
        0.0,
        1.0
      ],
      "name": "Tent_fbx.fbx"
    },
    {
      "children": [
        3
      ],
      "name": "RootNode"
    },
    {
      "children": [
        4
      ],
      "name": "TentMesh"
    },
    {
      "mesh": 0,
      "name": "TentMesh_Tent_Mat_0"
    }
  ],
  "samplers": [
    {
      "magFilter": 9729,
      "minFilter": 9987,
      "wrapS": 10497,
      "wrapT": 10497
    }
  ],
  "scene": 0,
  "scenes": [
    {
      "name": "Sketchfab_Scene",
      "nodes": [
        0
      ]
    }
  ],
  "textures": [
    {
      "sampler": 0,
      "source": 0
    },
    {
      "sampler": 0,
      "source": 1
    },
    {
      "sampler": 0,
      "source": 2
    }
  ]
}
